<!DOCTYPE svg PUBLIC "-//W3C//DTD SVG 1.1//EN" "http://www.w3.org/Graphics/SVG/1.1/DTD/svg11.dtd">

<!-- Uploaded to: SVG Repo, www.svgrepo.com, Transformed by: SVG Repo Mixer Tools -->
<svg fill="#ff4500" height="800px" width="800px" version="1.1" xmlns="http://www.w3.org/2000/svg" viewBox="0 0 264.00 264.00" xmlns:xlink="http://www.w3.org/1999/xlink" enable-background="new 0 0 264 264" stroke="#ff4500" stroke-width="0.00264">

<g id="SVGRepo_bgCarrier" stroke-width="0"/>

<g id="SVGRepo_tracerCarrier" stroke-linecap="round" stroke-linejoin="round" stroke="#CCCCCC" stroke-width="0.528"/>

<g id="SVGRepo_iconCarrier"> <g> <path d="m172.968,33h-32.468v-33h-16v33h-32.047l-42.953,49.75v181.25h165v-181.25l-41.532-49.75zm-40.135,10.5c4.417,0 8,3.582 8,8s-3.583,8-8,8c-4.417,0-8-3.582-8-8s3.583-8 8-8zm-.001,162.795c-69.641-44.438-50.327-84.025-31.888-89.92 15.542-4.969 28.908,4.607 31.888,17.053 2.982-12.445 16.348-22.021 31.89-17.053 18.439,5.895 37.753,45.482-31.89,89.92z"/> </g> </g>

</svg>